<svg width="40" height="40" viewBox="0 0 40 40" fill="none" xmlns="http://www.w3.org/2000/svg">
<g clip-path="url(#clip0_43_942)">
<mask id="mask0_43_942" style="mask-type:luminance" maskUnits="userSpaceOnUse" x="-1" y="0" width="41" height="40">
<path d="M-0.00195312 0H39.9919V39.9939H-0.00195312V0Z" fill="white"/>
</mask>
<g mask="url(#mask0_43_942)">
<path fill-rule="evenodd" clip-rule="evenodd" d="M-10 0H49.9908V39.9939H-10V0Z" fill="#165D31"/>
<path fill-rule="evenodd" clip-rule="evenodd" d="M5.11814 11.337C5.05363 12.2724 4.96494 13.9173 5.7632 14.0866C6.72273 14.1753 6.19055 12.4578 6.53728 12.1514C6.60985 11.9901 6.73079 11.9901 6.73886 12.1917V13.6431C6.73079 14.1269 7.0372 14.2559 7.2791 14.3607C7.53712 14.3366 7.69839 14.3446 7.80321 14.5865L7.9161 17.1103C7.9161 17.1103 8.50472 17.2716 8.52891 15.6912C8.56116 14.7639 8.34345 13.9818 8.47246 13.8044C8.47246 13.627 8.69823 13.6189 8.8595 13.6996C9.10946 13.8769 9.22235 14.1027 9.60939 14.006C10.2061 13.8447 10.5609 13.5544 10.577 13.1029C10.5565 12.6582 10.4639 12.2197 10.3028 11.8047C10.327 11.724 10.1819 11.5225 10.2141 11.4418C10.319 11.6031 10.4802 11.595 10.5205 11.4418C10.4157 11.1032 10.2625 10.7887 10.0045 10.6516C9.79484 10.4662 9.48844 10.5065 9.37555 10.8935C9.36233 11.4018 9.53426 11.8975 9.85935 12.2885C9.96074 12.5076 10.0025 12.7496 9.9803 12.99C9.81097 13.0948 9.64164 13.0464 9.4965 12.9013C9.4965 12.9013 9.02077 12.5384 9.02077 12.4659C9.14978 11.6595 9.05302 11.5708 8.98045 11.3451C8.93207 11.0387 8.78693 10.9419 8.66598 10.7323C8.54503 10.6033 8.39183 10.6033 8.3112 10.7323C8.10155 11.0951 8.19831 11.8692 8.35151 12.2159C8.4644 12.5384 8.62567 12.74 8.54503 12.74C8.48053 12.9174 8.35151 12.8771 8.25475 12.6675C8.13508 12.2233 8.07809 11.7647 8.08543 11.3048C8.04511 10.9419 8.00479 10.1759 7.76289 9.98238C7.61776 9.78886 7.40005 9.88562 7.32748 10.063C7.30708 10.4125 7.31517 10.7631 7.35167 11.1112C7.51293 11.6757 7.56131 12.1917 7.64195 12.7803C7.66614 13.5705 7.18234 13.1271 7.20653 12.732C7.31941 12.224 7.28716 11.4176 7.1904 11.2161C7.10977 11.0145 7.02107 10.9661 6.83562 10.9984C6.67435 10.9822 6.29538 11.4015 6.19055 12.1111C6.19055 12.1111 6.0938 12.4739 6.05348 12.7884C5.99704 13.1512 5.7632 13.4093 5.59387 12.74C5.44873 12.2562 5.36004 11.0548 5.11814 11.337Z" fill="white"/>
<path fill-rule="evenodd" clip-rule="evenodd" d="M7.73204 15.1749L5.23242 16.3763C5.25661 15.8119 6.41772 14.7798 7.20793 14.7637C7.72398 14.7798 7.59496 14.9653 7.73204 15.1668V15.1749Z" fill="white"/>
<path fill-rule="evenodd" clip-rule="evenodd" d="M7.29651 15.9575C5.97413 19.3521 10.3767 19.8279 10.8685 16.0946C10.9169 15.9414 11.1104 15.7882 11.1346 16.0381C11.0298 19.4247 7.73193 19.6505 7.1675 18.5861C7.03042 18.3442 6.99011 17.7798 6.97398 17.4412C6.89335 16.78 6.53856 17.038 6.49018 17.6992C6.43374 18.062 6.4418 18.1668 6.4418 18.5216C6.6192 21.1825 10.8766 20.0375 11.5701 17.8363C11.9329 16.6187 11.5055 15.7156 11.7071 15.7156C12.1264 16.1752 12.7231 15.7801 12.8521 15.6188C12.9086 15.5382 13.0456 15.4898 13.1424 15.5947C13.4649 15.8366 14.0535 15.7156 14.1745 15.3044C14.239 14.8932 14.2954 14.4739 14.3116 14.0384C14.0455 14.1191 13.8439 14.1755 13.8278 14.2803L13.7713 14.6513C13.7471 14.7641 13.5133 14.7722 13.5052 14.619C13.4004 14.1594 12.9811 14.0949 12.7231 14.8125C12.5538 14.9577 12.2393 14.9738 12.207 14.7722C12.2474 14.2884 12.0538 14.2239 11.6668 14.4497L11.2878 11.6275C11.4491 11.6275 11.6023 11.7404 11.7474 11.555C11.5862 11.047 11.2395 10.0229 11.054 9.9423C10.9572 9.82941 10.8847 9.90198 10.7637 9.92617C10.5541 9.99068 10.3606 10.1681 10.4251 10.5148L11.0701 14.5626C11.1024 14.7319 10.9572 14.9657 10.7718 14.9415C10.4573 14.7238 10.3767 14.2965 9.84451 14.3126C9.44941 14.3126 9.00593 14.74 8.95755 15.1512C8.88498 15.4737 8.86079 15.8285 8.95755 16.1107C9.22364 16.4332 9.55423 16.4091 9.84451 16.3284C10.0783 16.2317 10.2719 15.9978 10.3606 16.0543C10.417 16.1268 10.3686 16.9009 9.23976 17.5057C8.56245 17.8121 8.01414 17.8766 7.72387 17.3202C7.54647 16.9735 7.73999 15.6511 7.29651 15.9494V15.9575Z" fill="white"/>
<path fill-rule="evenodd" clip-rule="evenodd" d="M12.8841 12.4982C13.1502 12.4095 14.4 10.9662 14.4 10.9662L14.2145 10.821C14.1419 10.7565 14.15 10.7001 14.2145 10.6356C14.5209 10.4582 14.4242 10.055 14.2629 9.87764C14.1577 9.82512 14.0418 9.79778 13.9242 9.79778C13.8067 9.79778 13.6907 9.82512 13.5856 9.87764C13.3679 10.0954 13.3195 10.4259 13.4888 10.6356C13.6501 10.7162 13.8275 10.8775 13.7146 10.9743C13.1985 11.5226 11.7955 12.466 11.9568 12.5063C11.989 12.5466 12.8599 12.5466 12.8841 12.5063V12.4982ZM5.31264 17.5781C4.84497 18.328 4.80466 19.4488 5.07075 19.7794C5.19976 19.9406 5.42553 20.0051 5.59486 19.9567C5.8932 19.8277 6.02221 19.2311 5.94964 19.0133C5.85289 18.8521 5.77225 18.8359 5.67549 18.965C5.46585 19.3843 5.37715 19.094 5.36102 18.8601C5.32877 18.4167 5.36909 17.9974 5.41747 17.6748C5.47391 17.3442 5.41747 17.441 5.31264 17.5781ZM25.3983 16.3686C24.9467 15.3929 24.3178 14.4253 24.1162 14.0544C23.5081 13.0915 22.8626 12.1527 22.181 11.2403C21.6972 10.6598 22.9793 11.4822 22.0198 10.3292C21.6569 10.0067 21.6327 9.99859 21.3263 9.74057C21.1731 9.62768 20.8022 9.43416 20.7377 9.7567C20.7057 9.98786 20.7166 10.2229 20.77 10.4501C20.8022 10.6114 21.036 10.8775 21.157 11.0388C22.689 13.0949 24.0517 15.1833 25.358 17.7958C25.5676 17.699 25.5192 16.5379 25.3983 16.3686Z" fill="white"/>
<path fill-rule="evenodd" clip-rule="evenodd" d="M23.406 19.6498C23.3173 19.7546 23.6237 20.1819 24.0269 20.1819C24.7042 20.1013 25.2928 19.7223 25.8411 18.7306C25.9863 18.4887 26.2443 18.0049 26.2523 17.6098C26.3088 15.352 26.1395 13.5942 25.8008 11.9655C25.7847 11.8042 25.8008 11.6107 25.825 11.5623C25.8653 11.5139 26.0105 11.5623 26.0911 11.4413C26.204 11.3204 25.7847 10.3447 25.5508 9.97383C25.4621 9.8045 25.4299 9.69162 25.2928 9.98996C25.1396 10.2319 25.0509 10.6592 25.0509 11.0543C25.3735 13.2798 25.4783 15.2311 25.6879 17.4485C25.704 17.6662 25.6718 17.9807 25.5267 18.1016C24.9369 18.7615 24.2142 19.2891 23.406 19.6498ZM32.5014 19.6417C32.0176 19.9159 32.0176 20.2384 32.4127 20.2545C33.0819 20.1739 33.8802 20.1174 34.4285 19.2869C34.5737 19.0531 34.751 18.4241 34.7591 18.0452C34.8075 15.7875 34.7269 14.0942 34.3882 12.4654C34.3721 12.3041 34.2995 11.9413 34.3237 11.8929C34.3721 11.78 34.5898 11.901 34.6704 11.7719C34.7833 11.6591 34.106 10.7802 33.8641 10.4012C33.7754 10.2399 33.7431 10.127 33.6061 10.4254C33.4529 10.6673 33.4045 11.1027 33.4609 11.4817C33.8238 13.9006 34.0899 15.7149 34.1382 17.8517C34.1141 18.0613 34.106 18.1742 34.0092 18.4241C33.7996 18.6983 33.5657 19.037 33.34 19.1982C33.1223 19.3595 32.6546 19.5208 32.5014 19.6417Z" fill="white"/>
<path fill-rule="evenodd" clip-rule="evenodd" d="M32.864 17.4734V15.9978C32.8578 15.6301 32.7754 15.2677 32.6221 14.9335C32.477 14.6109 32.5657 14.361 32.5012 14.0142C32.4366 13.6756 32.4528 13.1595 32.356 12.7564C32.3238 12.5951 32.2431 12.0952 32.2754 12.0468C32.3076 11.9339 32.4608 12.0468 32.5334 11.9178C32.6463 11.7968 32.1464 10.5067 31.8964 10.1439C31.8077 9.98261 31.6464 10.031 31.4368 10.3051C31.2513 10.4745 31.3239 10.8776 31.3965 11.2566C31.8803 13.7804 32.2351 16.0704 32.1625 18.4652C32.1383 18.6748 32.8721 17.8604 32.864 17.4734ZM29.292 14.3448C28.9936 14.3448 28.3566 13.7482 28.1631 13.4095C28.1352 13.3279 28.1243 13.2414 28.1313 13.1553C28.1382 13.0693 28.1628 12.9857 28.2034 12.9096C28.3163 12.8289 28.4937 12.7483 28.6227 12.8289C28.6227 12.8289 28.7517 13.0225 28.7275 13.0467C28.8888 13.1273 28.9694 13.0789 28.9856 13.0063C28.9936 12.8935 28.9291 12.8209 28.9291 12.6838C29.0098 12.3371 29.4129 12.2806 29.5581 12.5064C29.6709 12.6435 29.7113 12.9338 29.7274 13.1354C29.7274 13.2321 29.5661 13.1112 29.4694 13.1354C29.3807 13.1676 29.3565 13.2724 29.3484 13.3692C29.3323 13.6272 29.3 14.0384 29.292 14.3368V14.3448ZM23.6799 18.1023C23.7606 17.3283 23.6557 15.9656 23.6477 15.514C23.6154 14.4416 23.438 12.3693 23.3574 12.0307C23.2606 11.3776 23.6235 12.1033 23.5751 11.7243C23.4542 11.0792 23.0913 10.6277 22.672 10.031C22.5349 9.84553 22.543 9.80522 22.3253 10.0794C22.0995 10.6115 22.3011 10.9744 22.3575 11.3856C22.6639 12.7322 22.8413 13.9659 22.922 15.1915C23.0123 16.4663 23.0231 17.7454 22.9542 19.0215C23.1881 19.0377 23.559 18.6506 23.6799 18.1023Z" fill="white"/>
<path fill-rule="evenodd" clip-rule="evenodd" d="M33.905 16.868C33.3647 15.973 32.5584 14.9973 32.3407 14.6345C31.6187 13.6209 30.8603 12.6339 30.0668 11.6752C29.3976 10.9737 30.3733 11.5624 29.9378 11.0221C29.5669 10.619 29.454 10.4899 29.1476 10.248C28.9864 10.1432 28.8896 9.94971 28.8412 10.2803C28.817 10.5706 28.8009 10.9092 28.817 11.1592C28.817 11.2963 28.9622 11.5462 29.0831 11.6994C30.6958 13.6911 32.4697 15.7311 33.8969 18.2871C34.0985 18.1743 34.034 17.0293 33.8969 16.868H33.905Z" fill="white"/>
<path fill-rule="evenodd" clip-rule="evenodd" d="M9.57829 15.2077C9.53797 15.2803 9.44928 15.369 9.48153 15.4496C9.54604 15.5303 9.59442 15.5544 9.69118 15.5625C9.77181 15.5625 9.90082 15.5786 9.92501 15.5303C9.95408 15.4947 9.97314 15.4521 9.98022 15.4067C9.98731 15.3614 9.98217 15.3149 9.96533 15.2722C9.8847 15.0465 9.62667 15.1271 9.57829 15.2077Z" fill="#165D31"/>
<path fill-rule="evenodd" clip-rule="evenodd" d="M27.6719 28.3261C28.3895 28.3503 28.8572 28.3584 29.4942 28.4309L30.236 28.3503C31.0665 28.2697 31.1068 29.5356 31.1068 29.5356C31.0987 30.2774 30.8085 30.3097 30.4456 30.3903C30.236 30.4225 30.1231 30.2693 30.0183 30.1081C29.8812 30.1645 29.6957 30.1726 29.4619 30.1403C29.1636 30.1242 28.8652 30.1242 28.5749 30.1C28.2524 30.0758 28.0831 30.1403 27.7686 30.1081C27.696 30.2129 27.6073 30.35 27.4219 30.3097C27.2606 30.2935 27.0671 29.8339 27.1235 29.4953C27.2364 29.2453 27.2042 29.3259 27.1961 29.2131C24.2611 29.1405 21.3099 29.0115 18.4313 29.0518C16.1736 29.0518 13.9562 29.1486 11.7388 29.2453C10.5535 29.2292 9.64236 29.0357 9.02148 28.1165C9.07793 28.1165 12.0452 28.2938 12.908 28.2374C14.5206 28.2132 15.9801 28.0842 17.6169 28.0358C20.8423 28.0923 24.0273 28.0923 27.2526 28.318C26.9462 28.1084 26.93 27.6085 27.4138 27.4875C27.4461 27.4633 27.4703 27.7294 27.5428 27.7294C27.9138 27.7052 27.7525 28.2132 27.6719 28.3261ZM14.7384 10.5627C14.2546 11.9576 15.0125 13.4816 15.5447 13.3365C15.9317 13.4977 16.1736 12.764 16.3349 11.9657C16.4397 11.7399 16.5203 11.7157 16.5768 11.8286C16.5607 12.893 16.6574 13.1268 16.9316 13.4493C17.0893 13.5902 17.2922 13.67 17.5036 13.6744C17.715 13.6789 17.9211 13.6076 18.0846 13.4735L18.5603 12.9897C18.6652 12.8849 18.8022 12.8769 18.9554 12.9736C19.1006 13.1107 19.0764 13.3365 19.3909 13.4977C19.6489 13.6025 20.2133 13.5219 20.3423 13.2961C20.5117 12.9978 20.56 12.893 20.6407 12.7801C20.7616 12.6188 20.9713 12.6833 20.9713 12.7398C20.9551 12.8285 20.8342 12.9252 20.9148 13.0865C21.06 13.1994 21.1003 13.1268 21.189 13.1026C21.4954 12.9575 21.7292 12.2802 21.7292 12.2802C21.7373 12.0383 21.6002 12.0544 21.5115 12.1028L21.2696 12.2721C21.1083 12.2963 20.8181 12.3931 20.6729 12.1673C20.5278 11.9012 20.5197 11.5222 20.4068 11.2481C20.4068 11.2319 20.2133 10.8207 20.3988 10.7965C20.4875 10.8127 20.6891 10.861 20.7213 10.6998C20.8181 10.5385 20.5117 10.0789 20.302 9.84506C20.1246 9.65154 19.8666 9.62735 19.6247 9.82893C19.4634 9.9902 19.4796 10.1515 19.4473 10.3208C19.4194 10.4384 19.4195 10.561 19.4475 10.6786C19.4755 10.7962 19.5307 10.9056 19.6086 10.9981C19.7779 11.3287 20.0924 11.7561 19.9875 12.3689C19.9875 12.3689 19.8021 12.6511 19.4876 12.6108C19.3586 12.5785 19.149 12.5301 19.0361 11.6915C18.9554 11.0545 19.0522 10.1676 18.7861 9.75636C18.6894 9.49834 18.6249 9.25644 18.383 9.69185C18.3184 9.85312 18.0443 10.1111 18.2378 10.6433C18.4223 11.112 18.478 11.6215 18.3991 12.1189C18.2862 12.2882 18.262 12.3527 18.1088 12.5221C17.9072 12.7398 17.6814 12.6833 17.5121 12.6027C17.3509 12.4979 17.2218 12.4414 17.1493 12.0947C17.1654 11.5464 17.1896 10.6514 17.0928 10.4579C16.9477 10.1676 16.7058 10.2724 16.601 10.3611C16.1331 10.88 15.8202 11.5197 15.6979 12.2076C15.5608 12.6511 15.4157 12.5301 15.3108 12.3447C15.0609 12.1028 15.0448 10.2563 14.7384 10.5627Z" fill="white"/>
<path fill-rule="evenodd" clip-rule="evenodd" d="M16.2055 13.6031C16.4313 13.4418 16.3265 13.337 16.6571 13.6676C17.0826 14.4158 17.3309 15.2516 17.3828 16.1108C17.3586 16.3124 17.5037 16.4333 17.5682 16.393C17.6005 15.9253 18.7535 15.2641 19.8018 15.1674C19.963 15.1351 19.8824 14.8287 19.9066 14.6674C19.8421 14.0869 20.2291 13.5547 20.7855 13.5144C21.5273 13.6273 21.7773 14.0224 21.7934 14.6271C21.7128 15.7963 20.4952 15.9979 19.8098 16.0785C19.705 16.1269 19.6647 16.1753 19.8098 16.2317L22.6723 16.2398L22.8174 16.3204C22.8336 16.4011 22.7771 16.3365 22.6562 16.522C22.5352 16.7075 22.382 17.1429 22.374 17.4251C21.5158 17.6756 20.6355 17.843 19.7453 17.925C19.4389 18.0863 19.2857 18.2959 19.3422 18.5298C19.447 18.7958 20.1404 19.0539 20.1404 19.07C20.2694 19.1506 20.4226 19.3442 20.1001 19.7312C18.7052 19.6747 17.6247 19.0781 17.2538 18.2395C17.1409 18.1588 17.0119 18.2395 16.9393 18.3524C16.4538 19.0986 15.7539 19.6805 14.9315 20.0215C14.3752 20.1585 13.8108 19.9408 13.5447 19.578C13.3673 19.3683 13.3753 19.1426 13.3028 19.0942C13.0044 19.2232 10.4322 20.3198 10.7628 19.8118C11.3837 19.1345 12.4722 18.6426 13.4237 17.9815C13.5043 17.7637 13.6253 17.0139 14.0043 16.772C14.0204 16.772 13.9398 17.2074 13.9478 17.3928C13.9478 17.546 13.9398 17.6025 13.972 17.5622C14.0365 17.5218 15.1976 16.6107 15.2863 16.3285C15.3992 16.1672 15.3186 15.7641 15.3186 15.7479C15.1089 15.1835 14.8025 15.1432 14.6896 14.861C14.5848 14.4901 14.6332 14.0708 14.8429 13.9498C15.0283 13.7805 15.246 13.7966 15.4557 13.9821C15.6976 14.1917 15.8991 14.6029 15.9636 14.9093C15.9233 15.0303 15.6572 14.8287 15.5605 14.8932C15.7217 15.0545 15.8024 15.2561 15.8588 15.498C16.0201 16.143 15.9636 16.3849 15.8185 16.8042C15.3025 17.8847 14.6413 18.2153 14.0607 18.6104C14.0446 18.6185 14.0365 18.8926 14.2542 19.0377C14.3349 19.1184 14.6332 19.1506 14.9799 19.0377C15.7341 18.6213 16.3442 17.9859 16.7297 17.2154C16.8345 16.6349 16.6893 16.0221 16.5361 15.4899C16.3604 15.0654 16.199 14.6352 16.0523 14.1998C16.0362 13.8772 16.0604 13.7644 16.2136 13.6031H16.2055ZM8.72282 10.5874C9.04535 10.7406 9.66623 10.6681 9.64204 10.1439L9.62591 9.89398C9.5614 9.73272 9.37595 9.77304 9.33563 9.94236C9.3195 9.99074 9.35982 10.0794 9.31144 10.1036C9.27919 10.1278 9.17436 10.1117 9.18243 9.96655C9.18243 9.91817 9.15017 9.86979 9.12598 9.83754C9.10179 9.82948 9.09373 9.82142 9.05342 9.82142C9.00504 9.82142 9.0131 9.83754 8.98085 9.87786L8.95666 9.99881C8.95666 10.0553 8.93247 10.0714 8.89215 10.0794C8.85183 10.0794 8.8599 10.0794 8.82764 10.0633C8.80345 10.0391 8.77926 10.0311 8.77926 9.99074L8.76314 9.86173C8.74166 9.83795 8.71359 9.82111 8.6825 9.81335C8.49705 9.81335 8.48898 10.023 8.49705 10.1036C8.48092 10.1117 8.47286 10.4826 8.72282 10.5874Z" fill="white"/>
<path fill-rule="evenodd" clip-rule="evenodd" d="M18.3673 14.6666C18.6899 14.8279 19.4801 14.7312 19.2866 14.2232L19.2704 13.9813C19.2059 13.82 19.0285 13.8603 18.9801 14.0216C18.9721 14.07 19.0043 14.1587 18.956 14.1829C18.9318 14.2151 18.8269 14.199 18.8269 14.0538C18.8269 14.0055 18.7947 13.9571 18.7705 13.9248C18.7544 13.9087 18.7383 13.9087 18.6979 13.9087C18.6576 13.9087 18.6576 13.9168 18.6334 13.9571L18.6092 14.078C18.6012 14.1345 18.577 14.1587 18.5447 14.1587C18.4964 14.1587 18.5125 14.1587 18.4722 14.1425C18.456 14.1183 18.4238 14.1103 18.4238 14.07C18.4238 14.0296 18.4238 13.9651 18.4077 13.941C18.3915 13.9168 18.3593 13.9087 18.327 13.9006C18.1496 13.9006 18.1335 14.1022 18.1416 14.1829C18.1335 14.199 18.1254 14.5618 18.3673 14.6666ZM23.9955 12.9734C24.318 13.1346 24.9389 13.0621 24.9147 12.5379L24.8986 12.288C24.8341 12.1267 24.6486 12.167 24.6083 12.3283C24.5922 12.3847 24.6325 12.4654 24.5841 12.4896C24.5519 12.5218 24.4471 12.5057 24.4551 12.3606C24.4551 12.3122 24.4148 12.2638 24.3987 12.2315C24.3745 12.2235 24.3664 12.2154 24.318 12.2154C24.2777 12.2154 24.2777 12.2315 24.2535 12.2719L24.2293 12.3928C24.2293 12.4412 24.2052 12.4654 24.1648 12.4734C24.1245 12.4734 24.1326 12.4734 24.1003 12.4492C24.0761 12.4331 24.052 12.417 24.052 12.3847C24.052 12.3444 24.0439 12.2799 24.0278 12.2477C24.0116 12.2235 23.9874 12.2154 23.9471 12.2073C23.7697 12.2073 23.7617 12.417 23.7697 12.4896C23.7536 12.5057 23.7456 12.8766 23.9955 12.9734ZM26.8983 17.2227C26.3339 17.8678 26.5838 18.9321 26.7128 19.1579C26.9064 19.5449 27.0515 19.7868 27.4224 19.9723C27.7611 20.2142 28.0191 20.061 28.1642 19.8917C28.5029 19.5449 28.5029 18.6499 28.6642 18.4725C28.777 18.15 29.0512 18.2064 29.1883 18.3516C29.3128 18.5268 29.4791 18.6682 29.6721 18.7628C29.9865 19.0369 30.3574 19.0853 30.7284 18.8434C30.9783 18.6983 31.1476 18.5128 31.2928 18.15C31.454 17.7065 31.3734 15.6746 31.3331 14.4731C31.325 14.3764 31.0106 12.8121 31.0106 12.796C31.0106 12.7798 30.9622 11.9977 30.9299 11.8122C30.9299 11.7397 30.9057 11.7155 30.9864 11.7316C31.067 11.7961 31.0831 11.8042 31.1315 11.8284C31.2121 11.8445 31.2928 11.6994 31.2444 11.5623L30.4542 10.1109C30.3978 10.0545 30.3171 9.98995 30.2123 10.1351C30.1513 10.1883 30.1024 10.254 30.069 10.3277C30.0356 10.4014 30.0185 10.4815 30.0188 10.5624C30.043 10.9092 30.0994 11.2559 30.1236 11.6026L30.4461 13.3604C30.5429 14.6183 30.5671 15.6423 30.6638 16.9082C30.6477 17.4324 30.4865 17.9 30.3252 17.9565C30.3252 17.9565 30.0914 18.1016 29.9381 17.9565C29.8172 17.9 29.3576 17.1824 29.3576 17.1824C29.1157 16.9647 28.9706 17.0211 28.7932 17.1824C28.3416 17.6259 28.132 18.4645 27.8175 19.0369C27.7369 19.166 27.503 19.2788 27.2531 19.0289C26.608 18.1419 26.987 16.9002 26.9064 17.2227H26.8983ZM24.1406 9.89319C24.439 10.0141 24.6406 10.6189 24.5761 10.9092C24.5196 11.2639 24.3584 11.659 24.2535 11.6026C24.1245 11.5623 24.3342 11.2478 24.2132 10.9172C24.1487 10.7076 23.7455 10.3125 23.7859 10.1996C23.7052 9.95769 23.9633 9.85287 24.1406 9.89319Z" fill="white"/>
<path fill-rule="evenodd" clip-rule="evenodd" d="M27.857 17.5783C27.9134 16.8526 27.8086 16.4172 27.7925 15.9979C27.7763 15.5786 27.3087 12.3694 27.228 12.0469C27.1071 11.4421 27.6715 11.9663 27.607 11.6115C27.4135 11.168 26.9377 10.5229 26.7845 10.144C26.6959 9.98269 26.7281 9.82949 26.5265 10.0956C26.3525 10.5751 26.2917 11.0884 26.3491 11.5953C26.8329 14.1192 27.3248 16.2156 27.2442 18.6185C27.478 18.6185 27.7441 18.0943 27.857 17.5702V17.5783ZM32.8885 10.91C33.1626 11.047 33.3158 11.7969 33.2916 12.0066C33.2352 12.4017 33.09 12.8129 32.9852 12.7645C32.8804 12.7161 33.0094 12.184 32.953 12.0227C32.8965 11.7889 32.5337 11.3696 32.5659 11.2406C32.4934 10.9825 32.7272 10.8696 32.8885 10.918V10.91ZM12.9157 16.2156C13.1737 16.3204 13.3189 16.8607 13.2947 17.0219C13.2463 17.3122 13.1092 17.6186 13.0125 17.5864C12.9076 17.546 13.0286 17.159 12.9802 17.0381C12.956 16.7397 12.6012 16.5865 12.6093 16.4656C12.5448 16.2237 12.7625 16.1834 12.9157 16.2237V16.2156Z" fill="white"/>
<path fill-rule="evenodd" clip-rule="evenodd" d="M19.132 17.0463C19.4545 17.0624 19.6239 17.3285 19.3174 17.4333C19.011 17.5381 18.7127 17.6187 18.7127 18.0622C18.8256 18.6831 18.5514 18.4654 18.3902 18.3848C18.2047 18.2477 17.6725 17.9252 17.6 17.2156C17.5919 17.0543 17.7209 16.9092 17.9306 16.9092C18.2531 16.9898 18.7208 17.0059 19.1239 17.0463H19.132Z" fill="#165D31"/>
<path fill-rule="evenodd" clip-rule="evenodd" d="M6.04571 9.71669C6.42469 9.82958 6.44888 10.3859 6.41663 10.5553C6.36825 10.8536 6.23117 11.1681 6.13441 11.1278C6.02959 11.0955 6.13441 10.6923 6.08603 10.5633C6.02959 10.3859 5.70706 10.0634 5.74737 9.96665C5.66674 9.77313 5.89251 9.68444 6.04571 9.72476V9.71669ZM13.5365 12.3453C13.2462 12.5066 13.1333 12.9743 13.3107 13.2484C13.4801 13.4903 13.7461 13.4016 13.7865 13.4016C14.0687 13.4339 14.238 12.8614 14.238 12.8614C14.238 12.8614 14.2461 12.7001 13.9155 13.0065C13.7703 13.0307 13.7542 12.9823 13.7139 12.9017C13.6795 12.75 13.6965 12.5911 13.7623 12.4501C13.8107 12.3131 13.6978 12.2486 13.5365 12.3453ZM15.7136 9.49898C15.5765 9.60381 15.2782 9.90215 15.2701 10.2489C15.2701 10.4424 15.2298 10.4424 15.3507 10.5714C15.4475 10.7004 15.5443 10.6923 15.7297 10.5956C15.7759 10.5657 15.8154 10.5266 15.8459 10.4809C15.8764 10.4351 15.8973 10.3836 15.9071 10.3295C15.9555 10.1037 15.6733 10.4343 15.641 10.1844C15.5765 9.95859 15.7539 9.86183 15.9232 9.63606C15.9232 9.48286 15.9232 9.37803 15.7217 9.49898H15.7136ZM17.4794 9.82151C17.4091 10.1044 17.3659 10.3933 17.3504 10.6843C17.3021 10.902 17.5762 10.9907 17.7052 10.7085C17.8907 10.2005 17.8907 9.98278 17.9068 9.76507C17.8504 9.44254 17.6246 9.44254 17.4794 9.81345V9.82151ZM28.5665 15.4577C28.5987 15.4174 30.1307 14.3289 30.1307 14.3289C30.2839 14.2805 30.2517 14.8933 30.1791 14.8933C29.7059 15.352 29.1613 15.7305 28.5665 16.0141C28.4858 16.0625 28.4133 15.5948 28.5665 15.4497V15.4577ZM29.9533 15.4497C30.2194 15.5787 30.3323 16.3689 30.3001 16.5785C30.3081 16.9978 30.042 17.3284 29.9372 17.272C29.8243 17.2236 29.9453 16.7559 29.8969 16.5947C29.8405 16.3608 29.6066 15.9254 29.6469 15.8045C29.5663 15.5384 29.7921 15.4013 29.9533 15.4497ZM20.8902 18.8363C20.995 18.675 21.3176 18.4573 21.3256 18.4573C21.4788 18.3767 21.624 18.5137 21.6159 18.5057C21.6401 18.6589 21.5191 18.7959 21.5595 18.9975C21.5917 19.0782 21.6159 19.1669 21.7691 19.1346C22.011 18.9491 22.2368 18.933 22.4787 18.9169C22.6641 18.933 22.6641 19.2394 22.5513 19.2475C22.0997 19.3442 21.9062 19.4652 21.5837 19.5861C21.4305 19.6748 21.3014 19.562 21.3014 19.5539C21.3014 19.5458 21.2208 19.4652 21.2773 19.2636C21.2853 19.1023 21.2208 19.0217 21.0918 19.0378C20.987 19.0862 20.8983 19.1185 20.8499 19.0056C20.8257 18.925 20.8257 18.8846 20.8902 18.8363ZM31.5579 19.2556C31.6224 19.3362 31.6708 19.4168 31.5579 19.5539L31.2677 19.7958C31.2112 19.8926 31.187 20.0216 31.3402 20.0619C31.6224 20.1425 32.2836 19.7152 32.2836 19.7071C32.3885 19.6265 32.3562 19.4733 32.3401 19.4733C32.2836 19.4007 32.1385 19.441 32.0498 19.4329C32.0014 19.4329 31.8563 19.4088 31.9208 19.2797C31.9853 19.1991 32.0014 19.1507 32.0417 19.0459C32.0901 18.9491 32.0498 18.8846 31.8885 18.8282C31.7273 18.804 31.6628 18.8201 31.4854 18.8282C31.3805 18.8524 31.3483 18.8927 31.3241 19.0137C31.3402 19.191 31.445 19.183 31.566 19.2556H31.5579Z" fill="white"/>
<path fill-rule="evenodd" clip-rule="evenodd" d="M20.9477 14.8201C20.9074 14.9007 20.7623 14.8927 20.6252 14.8201C20.4881 14.7475 20.4236 14.6185 20.4639 14.5459C20.5043 14.4734 20.6494 14.4734 20.7865 14.5459C20.9235 14.6185 20.9881 14.7475 20.9477 14.8201ZM13.9891 10.6433C13.9085 10.6675 13.8037 10.5949 13.7553 10.482C13.7069 10.3692 13.7311 10.2805 13.8117 10.2563C13.8924 10.2321 13.9972 10.3127 14.0456 10.4175C14.094 10.5224 14.0698 10.6272 13.9891 10.6433ZM27.7531 29.2937C28.4788 29.3259 29.1723 29.3017 29.898 29.3421C30.0351 29.4469 29.9383 29.7291 29.8496 29.7049L29.2368 29.6888C29.2368 29.4549 28.632 29.4953 28.6562 29.6968C28.3337 29.7372 28.0434 29.6888 27.7209 29.6727C27.6241 29.5517 27.6403 29.3421 27.7531 29.2937Z" fill="#165D31"/>
</g>
</g>
<defs>
<clipPath id="clip0_43_942">
<path d="M0 20C0 8.95431 8.95431 0 20 0C31.0457 0 40 8.95431 40 20C40 31.0457 31.0457 40 20 40C8.95431 40 0 31.0457 0 20Z" fill="white"/>
</clipPath>
</defs>
</svg>
