<svg width="40" height="40" viewBox="0 0 40 40" fill="none" xmlns="http://www.w3.org/2000/svg">
<g clip-path="url(#clip0_43_977)">
<path d="M0 0H40V40H0" fill="#BD3D44"/>
<path d="M0 4.53125H40ZM0 10.7031H40ZM0 16.875H40ZM0 23.0469H40ZM0 29.2188H40ZM0 35.3906H40Z" fill="black"/>
<path fill-rule="evenodd" clip-rule="evenodd" d="M40 6.09375H0V2.96875H40V6.09375ZM40 12.2656H0V9.14062H40V12.2656ZM40 18.4375H0V15.3125H40V18.4375ZM40 24.6094H0V21.4844H40V24.6094ZM40 30.7812H0V27.6562H40V30.7812ZM40 36.9531H0V33.8281H40V36.9531Z" fill="white"/>
<path d="M0 0H30.4688V21.4844H0V0Z" fill="#192F5D"/>
<path d="M2.18349 1.65335L1.95445 1.00004L1.72541 1.65335H1.00045L1.58874 2.04321L1.36737 2.67463L1.95445 2.28557L2.54153 2.67463L2.32017 2.04321L2.90845 1.65335H2.18349Z" fill="white"/>
<path d="M7.4016 1.65335L7.17256 1.00004L6.94353 1.65335H6.21856L6.80685 2.04321L6.58549 2.67463L7.17257 2.28557L7.75964 2.67463L7.53828 2.04321L8.12657 1.65335H7.4016Z" fill="white"/>
<path d="M12.6201 1.65335L12.391 1.00004L12.162 1.65335H11.437L12.0253 2.04321L11.804 2.67463L12.391 2.28557L12.9781 2.67463L12.7568 2.04321L13.345 1.65335H12.6201Z" fill="white"/>
<path d="M17.8385 1.65335L17.6095 1.00004L17.3805 1.65335H16.6555L17.2438 2.04321L17.0224 2.67463L17.6095 2.28557L18.1966 2.67463L17.9752 2.04321L18.5635 1.65335H17.8385Z" fill="white"/>
<path d="M23.057 1.65335L22.828 1.00004L22.5989 1.65335H21.874L22.4623 2.04321L22.2409 2.67463L22.828 2.28557L23.4151 2.67463L23.1937 2.04321L23.782 1.65335H23.057Z" fill="white"/>
<path d="M28.2755 1.65335L28.0464 1.00004L27.8174 1.65335H27.0924L27.6807 2.04321L27.4594 2.67463L28.0464 2.28557L28.6335 2.67463L28.4122 2.04321L29.0005 1.65335H28.2755Z" fill="white"/>
<path d="M2.18349 6.15332L1.95445 5.5L1.72541 6.15332H1.00045L1.58874 6.54317L1.36737 7.17459L1.95445 6.78553L2.54153 7.17459L2.32017 6.54318L2.90845 6.15332H2.18349Z" fill="white"/>
<path d="M7.4016 6.15332L7.17256 5.5L6.94353 6.15332H6.21856L6.80685 6.54317L6.58549 7.17459L7.17257 6.78553L7.75964 7.17459L7.53828 6.54318L8.12657 6.15332H7.4016Z" fill="white"/>
<path d="M12.6201 6.15332L12.391 5.5L12.162 6.15332H11.437L12.0253 6.54317L11.804 7.17459L12.391 6.78553L12.9781 7.17459L12.7568 6.54318L13.345 6.15332H12.6201Z" fill="white"/>
<path d="M17.8385 6.15332L17.6095 5.5L17.3805 6.15332H16.6555L17.2438 6.54317L17.0224 7.17459L17.6095 6.78553L18.1966 7.17459L17.9752 6.54318L18.5635 6.15332H17.8385Z" fill="white"/>
<path d="M23.057 6.15332L22.828 5.5L22.5989 6.15332H21.874L22.4623 6.54317L22.2409 7.17459L22.828 6.78553L23.4151 7.17459L23.1937 6.54318L23.782 6.15332H23.057Z" fill="white"/>
<path d="M28.2755 6.15332L28.0464 5.5L27.8174 6.15332H27.0924L27.6807 6.54317L27.4594 7.17459L28.0464 6.78553L28.6335 7.17459L28.4122 6.54318L29.0005 6.15332H28.2755Z" fill="white"/>
<path d="M2.18349 10.4787L1.95445 9.82541L1.72541 10.4787H1.00045L1.58874 10.8686L1.36737 11.5L1.95445 11.1109L2.54153 11.5L2.32017 10.8686L2.90845 10.4787H2.18349Z" fill="white"/>
<path d="M7.4016 10.4787L7.17256 9.82541L6.94353 10.4787H6.21856L6.80685 10.8686L6.58549 11.5L7.17257 11.1109L7.75964 11.5L7.53828 10.8686L8.12657 10.4787H7.4016Z" fill="white"/>
<path d="M12.6201 10.4787L12.391 9.82541L12.162 10.4787H11.437L12.0253 10.8686L11.804 11.5L12.391 11.1109L12.9781 11.5L12.7568 10.8686L13.345 10.4787H12.6201Z" fill="white"/>
<path d="M17.8385 10.4787L17.6095 9.82541L17.3805 10.4787H16.6555L17.2438 10.8686L17.0224 11.5L17.6095 11.1109L18.1966 11.5L17.9752 10.8686L18.5635 10.4787H17.8385Z" fill="white"/>
<path d="M23.057 10.4787L22.828 9.82541L22.5989 10.4787H21.874L22.4623 10.8686L22.2409 11.5L22.828 11.1109L23.4151 11.5L23.1937 10.8686L23.782 10.4787H23.057Z" fill="white"/>
<path d="M28.2755 10.4787L28.0464 9.82541L27.8174 10.4787H27.0924L27.6807 10.8686L27.4594 11.5L28.0464 11.1109L28.6335 11.5L28.4122 10.8686L29.0005 10.4787H28.2755Z" fill="white"/>
<path d="M2.18349 14.6533L1.95445 14L1.72541 14.6533H1.00045L1.58874 15.0432L1.36737 15.6746L1.95445 15.2855L2.54153 15.6746L2.32017 15.0432L2.90845 14.6533H2.18349Z" fill="white"/>
<path d="M7.4016 14.6533L7.17256 14L6.94353 14.6533H6.21856L6.80685 15.0432L6.58549 15.6746L7.17257 15.2855L7.75964 15.6746L7.53828 15.0432L8.12657 14.6533H7.4016Z" fill="white"/>
<path d="M12.6201 14.6533L12.391 14L12.162 14.6533H11.437L12.0253 15.0432L11.804 15.6746L12.391 15.2855L12.9781 15.6746L12.7568 15.0432L13.345 14.6533H12.6201Z" fill="white"/>
<path d="M17.8385 14.6533L17.6095 14L17.3805 14.6533H16.6555L17.2438 15.0432L17.0224 15.6746L17.6095 15.2855L18.1966 15.6746L17.9752 15.0432L18.5635 14.6533H17.8385Z" fill="white"/>
<path d="M23.057 14.6533L22.828 14L22.5989 14.6533H21.874L22.4623 15.0432L22.2409 15.6746L22.828 15.2855L23.4151 15.6746L23.1937 15.0432L23.782 14.6533H23.057Z" fill="white"/>
<path d="M28.2755 14.6533L28.0464 14L27.8174 14.6533H27.0924L27.6807 15.0432L27.4594 15.6746L28.0464 15.2855L28.6335 15.6746L28.4122 15.0432L29.0005 14.6533H28.2755Z" fill="white"/>
<path d="M2.18304 18.9787L1.954 18.3254L1.72496 18.9787H1L1.58829 19.3686L1.36692 20L1.954 19.6109L2.54108 20L2.31972 19.3686L2.908 18.9787H2.18304Z" fill="white"/>
<path d="M7.40115 18.9787L7.17211 18.3254L6.94308 18.9787H6.21811L6.8064 19.3686L6.58504 20L7.17212 19.6109L7.75919 20L7.53783 19.3686L8.12612 18.9787H7.40115Z" fill="white"/>
<path d="M12.6196 18.9787L12.3906 18.3254L12.1615 18.9787H11.4366L12.0249 19.3686L11.8035 20L12.3906 19.6109L12.9777 20L12.7563 19.3686L13.3446 18.9787H12.6196Z" fill="white"/>
<path d="M17.8381 18.9787L17.6091 18.3254L17.38 18.9787H16.6551L17.2433 19.3686L17.022 20L17.6091 19.6109L18.1961 20L17.9748 19.3686L18.5631 18.9787H17.8381Z" fill="white"/>
<path d="M23.0566 18.9787L22.8275 18.3254L22.5985 18.9787H21.8735L22.4618 19.3686L22.2404 20L22.8275 19.6109L23.4146 20L23.1932 19.3686L23.7815 18.9787H23.0566Z" fill="white"/>
<path d="M28.275 18.9787L28.046 18.3254L27.817 18.9787H27.092L27.6803 19.3686L27.4589 20L28.046 19.6109L28.6331 20L28.4117 19.3686L29 18.9787H28.275Z" fill="white"/>
<path d="M4.9016 3.97872L4.67256 3.32541L4.44352 3.97872H3.71856L4.30685 4.36858L4.08549 5L4.67257 4.61094L5.25964 5L5.03828 4.36858L5.62657 3.97872H4.9016Z" fill="white"/>
<path d="M10.1201 3.97872L9.89103 3.32541L9.66199 3.97872H8.93703L9.52532 4.36858L9.30396 5L9.89104 4.61094L10.4781 5L10.2568 4.36858L10.845 3.97872H10.1201Z" fill="white"/>
<path d="M15.3385 3.97872L15.1095 3.32541L14.8805 3.97872H14.1555L14.7438 4.36858L14.5224 5L15.1095 4.61094L15.6966 5L15.4752 4.36858L16.0635 3.97872H15.3385Z" fill="white"/>
<path d="M20.557 3.97872L20.328 3.32541L20.0989 3.97872H19.374L19.9623 4.36858L19.7409 5L20.328 4.61094L20.9151 5L20.6937 4.36858L21.282 3.97872H20.557Z" fill="white"/>
<path d="M25.7755 3.97872L25.5464 3.32541L25.3174 3.97872H24.5924L25.1807 4.36858L24.9594 5L25.5464 4.61094L26.1335 5L25.9122 4.36858L26.5005 3.97872H25.7755Z" fill="white"/>
<path d="M4.9016 8.47872L4.67256 7.82541L4.44352 8.47872H3.71856L4.30685 8.86858L4.08549 9.5L4.67257 9.11094L5.25964 9.5L5.03828 8.86858L5.62657 8.47872H4.9016Z" fill="white"/>
<path d="M10.1201 8.47872L9.89103 7.82541L9.66199 8.47872H8.93703L9.52532 8.86858L9.30396 9.5L9.89104 9.11094L10.4781 9.5L10.2568 8.86858L10.845 8.47872H10.1201Z" fill="white"/>
<path d="M15.3385 8.47872L15.1095 7.82541L14.8805 8.47872H14.1555L14.7438 8.86858L14.5224 9.5L15.1095 9.11094L15.6966 9.5L15.4752 8.86858L16.0635 8.47872H15.3385Z" fill="white"/>
<path d="M20.557 8.47872L20.328 7.82541L20.0989 8.47872H19.374L19.9623 8.86858L19.7409 9.5L20.328 9.11094L20.9151 9.5L20.6937 8.86858L21.282 8.47872H20.557Z" fill="white"/>
<path d="M25.7755 8.47872L25.5464 7.82541L25.3174 8.47872H24.5924L25.1807 8.86858L24.9594 9.5L25.5464 9.11094L26.1335 9.5L25.9122 8.86858L26.5005 8.47872H25.7755Z" fill="white"/>
<path d="M4.9016 12.6533L4.67256 12L4.44352 12.6533H3.71856L4.30685 13.0432L4.08549 13.6746L4.67257 13.2855L5.25964 13.6746L5.03828 13.0432L5.62657 12.6533H4.9016Z" fill="white"/>
<path d="M10.1201 12.6533L9.89103 12L9.66199 12.6533H8.93703L9.52532 13.0432L9.30396 13.6746L9.89104 13.2855L10.4781 13.6746L10.2568 13.0432L10.845 12.6533H10.1201Z" fill="white"/>
<path d="M15.3385 12.6533L15.1095 12L14.8805 12.6533H14.1555L14.7438 13.0432L14.5224 13.6746L15.1095 13.2855L15.6966 13.6746L15.4752 13.0432L16.0635 12.6533H15.3385Z" fill="white"/>
<path d="M20.557 12.6533L20.328 12L20.0989 12.6533H19.374L19.9623 13.0432L19.7409 13.6746L20.328 13.2855L20.9151 13.6746L20.6937 13.0432L21.282 12.6533H20.557Z" fill="white"/>
<path d="M25.7755 12.6533L25.5464 12L25.3174 12.6533H24.5924L25.1807 13.0432L24.9594 13.6746L25.5464 13.2855L26.1335 13.6746L25.9122 13.0432L26.5005 12.6533H25.7755Z" fill="white"/>
<path d="M4.9016 16.9787L4.67256 16.3254L4.44352 16.9787H3.71856L4.30685 17.3686L4.08549 18L4.67257 17.6109L5.25964 18L5.03828 17.3686L5.62657 16.9787H4.9016Z" fill="white"/>
<path d="M10.1201 16.9787L9.89103 16.3254L9.66199 16.9787H8.93703L9.52532 17.3686L9.30396 18L9.89104 17.6109L10.4781 18L10.2568 17.3686L10.845 16.9787H10.1201Z" fill="white"/>
<path d="M15.3385 16.9787L15.1095 16.3254L14.8805 16.9787H14.1555L14.7438 17.3686L14.5224 18L15.1095 17.6109L15.6966 18L15.4752 17.3686L16.0635 16.9787H15.3385Z" fill="white"/>
<path d="M20.557 16.9787L20.328 16.3254L20.0989 16.9787H19.374L19.9623 17.3686L19.7409 18L20.328 17.6109L20.9151 18L20.6937 17.3686L21.282 16.9787H20.557Z" fill="white"/>
<path d="M25.7755 16.9787L25.5464 16.3254L25.3174 16.9787H24.5924L25.1807 17.3686L24.9594 18L25.5464 17.6109L26.1335 18L25.9122 17.3686L26.5005 16.9787H25.7755Z" fill="white"/>
</g>
<defs>
<clipPath id="clip0_43_977">
<path d="M0 20C0 8.95431 8.95431 0 20 0C31.0457 0 40 8.95431 40 20C40 31.0457 31.0457 40 20 40C8.95431 40 0 31.0457 0 20Z" fill="white"/>
</clipPath>
</defs>
</svg>
