<svg width="40" height="40" viewBox="0 0 40 40" fill="none" xmlns="http://www.w3.org/2000/svg">
<g clip-path="url(#clip0_43_114)">
<path fill-rule="evenodd" clip-rule="evenodd" d="M0 0H40V40H0V0Z" fill="white"/>
<path fill-rule="evenodd" clip-rule="evenodd" d="M1.7168 13.0898L6.59336 5.77775L7.81204 6.59051L2.93548 13.9026L1.7168 13.0898ZM3.54482 14.309L8.42138 6.99689L9.64007 7.80965L4.7635 15.1217L3.54482 14.309ZM5.37285 15.5281L10.2494 8.21603L11.4681 9.02879L6.59153 16.3409L5.37285 15.5281Z" fill="#000001"/>
<path fill-rule="evenodd" clip-rule="evenodd" d="M28.5273 30.9707L33.4039 23.6586L34.6226 24.4714L29.746 31.7835L28.5273 30.9707ZM30.3554 32.1898L35.2319 24.8777L36.4506 25.6905L31.5741 33.0026L30.3554 32.1898ZM32.1834 33.409L37.06 26.0969L38.2786 26.9096L33.4021 34.2217L32.1834 33.409Z" fill="#000001"/>
<path fill-rule="evenodd" clip-rule="evenodd" d="M36.2477 31.2757L30.1543 27.2119L30.5607 26.6026L36.6541 30.6664L36.2477 31.2757Z" fill="white"/>
<path fill-rule="evenodd" clip-rule="evenodd" d="M12.6875 15.1221C13.9808 13.1828 15.9916 11.8367 18.2774 11.3799C20.5632 10.9232 22.9369 11.3932 24.8762 12.6865C26.8154 13.9799 28.1615 15.9906 28.6183 18.2765C29.075 20.5623 28.605 22.9359 27.3117 24.8752L12.6875 15.1221Z" fill="#CD2E3A"/>
<path fill-rule="evenodd" clip-rule="evenodd" d="M12.6871 15.1225C11.3938 17.0618 10.9238 19.4354 11.3805 21.7212C11.8373 24.007 13.1834 26.0178 15.1226 27.3111C17.0619 28.6045 19.4356 29.0745 21.7214 28.6177C24.0072 28.161 26.018 26.8149 27.3113 24.8756C27.958 23.906 28.193 22.7191 27.9646 21.5762C27.7362 20.4333 27.0632 19.4279 26.0935 18.7813C25.1239 18.1346 23.9371 17.8996 22.7942 18.128C21.6513 18.3564 20.6459 19.0294 19.9992 19.999L12.6871 15.1225Z" fill="#0047A0"/>
<path d="M19.9984 19.9988C21.3451 17.9797 20.7998 15.2511 18.7807 13.9045C16.7615 12.5579 14.033 13.1031 12.6863 15.1223C11.3397 17.1415 11.8849 19.87 13.9041 21.2166C15.9233 22.5632 18.6518 22.018 19.9984 19.9988Z" fill="#CD2E3A"/>
<path fill-rule="evenodd" clip-rule="evenodd" d="M6.59766 34.2217L1.72109 26.9096L2.93978 26.0968L7.81634 33.4089L6.59766 34.2217ZM8.42568 33.0025L3.54912 25.6904L4.7678 24.8777L9.64436 32.1898L8.42568 33.0025ZM10.2537 31.7834L5.37714 24.4713L6.59582 23.6585L11.4724 30.9706L10.2537 31.7834Z" fill="#000001"/>
<path fill-rule="evenodd" clip-rule="evenodd" d="M33.4082 16.3408L28.5316 9.02872L29.7503 8.21596L34.6269 15.5281L33.4082 16.3408ZM35.2362 15.1217L30.3597 7.80958L31.5783 6.99682L36.4549 14.3089L35.2362 15.1217ZM37.0643 13.9025L32.1877 6.59044L33.4064 5.77768L38.2829 13.0898L37.0643 13.9025Z" fill="#000001"/>
<path fill-rule="evenodd" clip-rule="evenodd" d="M7.71474 28.6354L5.88672 29.8545L5.48034 29.2452L7.30836 28.026L7.71474 28.6354ZM32.6977 11.9738L30.565 13.3961L30.1587 12.7868L32.2914 11.3644L32.6977 11.9738ZM36.3538 9.53548L34.5258 10.7546L34.1194 10.1453L35.9474 8.92614L36.3538 9.53548Z" fill="white"/>
</g>
<defs>
<clipPath id="clip0_43_114">
<path d="M0 20C0 8.95431 8.95431 0 20 0C31.0457 0 40 8.95431 40 20C40 31.0457 31.0457 40 20 40C8.95431 40 0 31.0457 0 20Z" fill="white"/>
</clipPath>
</defs>
</svg>
