<svg width="40" height="40" viewBox="0 0 40 40" fill="none" xmlns="http://www.w3.org/2000/svg">
<g clip-path="url(#clip0_43_964)">
<path d="M0 0H40V40H0V0Z" fill="#EE1C25"/>
<path d="M16 8.2L5.8 14.8L10 4L13.6 14.8L4 8.2H16Z" fill="#FFFF00"/>
<path d="M18.4823 2.5816L22.1167 4.36168L18.3124 5.01534L20.7785 2.13455L20.541 6.00795L18.4823 2.5816Z" fill="#FFFF00"/>
<path d="M23.1154 6.11022L25.7725 9.16632L22.0112 8.28753L25.4062 6.59226L23.679 10.0703L23.1154 6.11022Z" fill="#FFFF00"/>
<path d="M23.9516 11.9169L25.1298 15.7937L22.0535 13.4544L25.8469 13.2931L22.8484 15.764L23.9516 11.9169Z" fill="#FFFF00"/>
<path d="M20.7815 16.0646L20.3725 20.0916L18.4395 16.7496L21.9975 18.0636L18.2815 19.1846L20.7815 16.0646Z" fill="#FFFF00"/>
</g>
<defs>
<clipPath id="clip0_43_964">
<path d="M0 20C0 8.95431 8.95431 0 20 0C31.0457 0 40 8.95431 40 20C40 31.0457 31.0457 40 20 40C8.95431 40 0 31.0457 0 20Z" fill="white"/>
</clipPath>
</defs>
</svg>
