<svg
    width="32"
    height="32"
    viewBox="0 0 32 32"
    fill="none"
    xmlns="http://www.w3.org/2000/svg">
    <path
        d="M26.9831 22.3018C26.5697 23.2568 26.0804 24.1358 25.5135 24.944C24.7407 26.0458 24.108 26.8084 23.6204 27.2319C22.8645 27.9271 22.0546 28.2831 21.1874 28.3033C20.5648 28.3033 19.814 28.1262 18.94 27.7668C18.0631 27.4091 17.2573 27.2319 16.5204 27.2319C15.7477 27.2319 14.9189 27.4091 14.0324 27.7668C13.1446 28.1262 12.4294 28.3135 11.8825 28.332C11.0509 28.3675 10.2219 28.0013 9.3945 27.2319C8.86639 26.7713 8.20583 25.9817 7.41451 24.863C6.56549 23.6684 5.86747 22.2832 5.32063 20.7039C4.73499 18.9981 4.44141 17.3463 4.44141 15.7471C4.44141 13.9153 4.83724 12.3353 5.63008 11.0113C6.25318 9.94786 7.08212 9.10895 8.11962 8.4931C9.15711 7.87726 10.2781 7.56343 11.4853 7.54335C12.1459 7.54335 13.0121 7.74767 14.0886 8.14924C15.162 8.55216 15.8513 8.75648 16.1535 8.75648C16.3794 8.75648 17.1451 8.51757 18.4431 8.04126C19.6705 7.59953 20.7065 7.41664 21.5552 7.48868C23.8549 7.67428 25.5827 8.58084 26.7317 10.2141C24.6749 11.4603 23.6575 13.2058 23.6778 15.4449C23.6963 17.189 24.329 18.6404 25.5726 19.7928C26.1361 20.3277 26.7654 20.7411 27.4656 21.0346C27.3138 21.475 27.1535 21.8968 26.9831 22.3018V22.3018ZM21.7087 1.54684C21.7087 2.91387 21.2093 4.19027 20.2138 5.37168C19.0125 6.77615 17.5595 7.58772 15.9837 7.45966C15.9637 7.29566 15.952 7.12305 15.952 6.94167C15.952 5.62933 16.5233 4.22485 17.5379 3.07651C18.0444 2.49508 18.6886 2.01163 19.4698 1.62597C20.2493 1.24607 20.9866 1.03598 21.6801 1C21.7003 1.18275 21.7087 1.36551 21.7087 1.54683V1.54684Z"
        fill="white" />
</svg>
