<svg width="24" height="24" viewBox="0 0 24 24" fill="none" xmlns="http://www.w3.org/2000/svg">
<path d="M6.00098 8L8.16098 9.8C10.001 11.33 10.921 12.1 12.001 12.1C13.081 12.1 14.001 11.33 15.841 9.8L18.001 8M10.001 20H14.001C17.771 20 19.661 20 20.831 18.83C22.001 17.66 22.001 15.77 22.001 12C22.001 8.23 22.001 6.34 20.831 5.17C19.661 4 17.771 4 14.001 4H10.001C6.23098 4 4.34098 4 3.17098 5.17C2.00098 6.34 2.00098 8.23 2.00098 12C2.00098 15.77 2.00098 17.66 3.17098 18.83C4.34098 20 6.23098 20 10.001 20Z" stroke="#4C4C4C" stroke-width="1.5" stroke-linecap="round"/>
</svg>
