<svg width="24" height="24" viewBox="0 0 24 24" fill="none" xmlns="http://www.w3.org/2000/svg">
<path d="M2.75 12C2.75 11.5858 2.41421 11.25 2 11.25C1.58579 11.25 1.25 11.5858 1.25 12H2.75ZM12 1.25C11.5858 1.25 11.25 1.58579 11.25 2C11.25 2.41421 11.5858 2.75 12 2.75V1.25ZM12 13H11.25C11.25 13.4142 11.5858 13.75 12 13.75V13ZM12.75 9C12.75 8.58579 12.4142 8.25 12 8.25C11.5858 8.25 11.25 8.58579 11.25 9H12.75ZM16 13.75C16.4142 13.75 16.75 13.4142 16.75 13C16.75 12.5858 16.4142 12.25 16 12.25V13.75ZM1.25 12C1.25 17.9371 6.06294 22.75 12 22.75V21.25C6.89137 21.25 2.75 17.1086 2.75 12H1.25ZM12 22.75C17.9371 22.75 22.75 17.9371 22.75 12H21.25C21.25 17.1086 17.1086 21.25 12 21.25V22.75ZM22.75 12C22.75 6.06294 17.9371 1.25 12 1.25V2.75C17.1086 2.75 21.25 6.89137 21.25 12H22.75ZM12.75 13V9H11.25V13H12.75ZM12 13.75H16V12.25H12V13.75Z" fill="#4C4C4C"/>
<circle cx="12" cy="12" r="10" stroke="#4C4C4C" stroke-width="1.5" stroke-linecap="round" stroke-dasharray="0.5 3.5"/>
</svg>
