<svg width="24" height="24" viewBox="0 0 24 24" fill="none" xmlns="http://www.w3.org/2000/svg">
<path d="M7.71175 3.86687L8.09558 4.51121L7.71175 3.86687ZM16.2882 3.86687L16.6721 3.22253L16.2882 3.86687ZM2.64284 14.8952L1.90048 15.002H1.90048L2.64284 14.8952ZM21.3572 14.8952L20.6148 14.7884H20.6148L21.3572 14.8952ZM17.6731 4.69181L17.2893 5.33615L17.6731 4.69181ZM21.6359 12.9579L22.3783 13.0647H22.3783L21.6359 12.9579ZM6.32691 4.69181L5.94308 4.04747H5.94308L6.32691 4.69181ZM2.36407 12.9579L3.10643 12.851L2.36407 12.9579ZM15.0001 18.7498C15.4143 18.7498 15.7501 18.414 15.7501 17.9998C15.7501 17.5856 15.4143 17.2498 15.0001 17.2498V18.7498ZM9.0001 17.2498C8.58589 17.2498 8.2501 17.5856 8.2501 17.9998C8.2501 18.414 8.58589 18.7498 9.0001 18.7498V17.2498ZM13.1061 21.25H10.8939V22.75H13.1061V21.25ZM6.71074 5.33615L8.09558 4.51121L7.32792 3.22253L5.94308 4.04747L6.71074 5.33615ZM15.9044 4.51121L17.2893 5.33615L18.0569 4.04747L16.6721 3.22253L15.9044 4.51121ZM3.38519 14.7884L3.10643 12.851L1.62172 13.0647L1.90048 15.002L3.38519 14.7884ZM20.8936 12.8511L20.6148 14.7884L22.0995 15.002L22.3783 13.0647L20.8936 12.8511ZM8.09558 4.51121C9.15308 3.88126 9.89923 3.43781 10.5237 3.14633C11.1328 2.86203 11.5707 2.75 12 2.75V1.25C11.2749 1.25 10.6134 1.44911 9.88928 1.7871C9.18053 2.11792 8.35971 2.6079 7.32792 3.22253L8.09558 4.51121ZM16.6721 3.22253C15.6403 2.6079 14.8195 2.11791 14.1107 1.7871C13.3866 1.44911 12.7251 1.25 12 1.25V2.75C12.4293 2.75 12.8672 2.86203 13.4763 3.14633C14.1008 3.43781 14.8469 3.88126 15.9044 4.51121L16.6721 3.22253ZM10.8939 21.25C9.15124 21.25 7.91405 21.2486 6.96299 21.1294C6.03245 21.0127 5.47129 20.7926 5.03841 20.4198L4.05965 21.5565C4.80183 22.1956 5.68984 22.4814 6.77634 22.6177C7.84233 22.7514 9.19005 22.75 10.8939 22.75V21.25ZM1.90048 15.002C2.14139 16.6763 2.33075 18.0022 2.61511 19.0322C2.90523 20.0829 3.31685 20.9169 4.05965 21.5565L5.03841 20.4198C4.60614 20.0476 4.30838 19.5289 4.06102 18.633C3.8079 17.7162 3.6317 16.5016 3.38519 14.7884L1.90048 15.002ZM13.1061 22.75C14.8099 22.75 16.1577 22.7514 17.2237 22.6177C18.3102 22.4814 19.1982 22.1956 19.9404 21.5565L18.9616 20.4198C18.5287 20.7926 17.9675 21.0127 17.037 21.1294C16.0859 21.2486 14.8488 21.25 13.1061 21.25V22.75ZM20.6148 14.7884C20.3683 16.5016 20.1921 17.7162 19.939 18.633C19.6916 19.5289 19.3939 20.0476 18.9616 20.4198L19.9404 21.5565C20.6831 20.9169 21.0948 20.0829 21.3849 19.0322C21.6692 18.0022 21.8586 16.6763 22.0995 15.002L20.6148 14.7884ZM17.2893 5.33615C18.4536 6.02973 19.2752 6.52034 19.8781 6.9739C20.4665 7.41662 20.7888 7.78294 20.9883 8.19917L22.3409 7.55072C22 6.8396 21.4769 6.29963 20.7799 5.77524C20.0973 5.2617 19.1933 4.72442 18.0569 4.04747L17.2893 5.33615ZM22.3783 13.0647C22.5657 11.7624 22.7158 10.7264 22.7448 9.87584C22.7745 9.0068 22.682 8.26219 22.3409 7.55072L20.9883 8.19917C21.1877 8.61505 21.2706 9.09337 21.2457 9.82469C21.2201 10.5745 21.0856 11.5163 20.8936 12.8511L22.3783 13.0647ZM5.94308 4.04747C4.80667 4.72442 3.90275 5.26171 3.22015 5.77524C2.52313 6.29963 1.99999 6.8396 1.65907 7.55072L3.01166 8.19917C3.21121 7.78294 3.53347 7.41662 4.12193 6.9739C4.72481 6.52034 5.54643 6.02973 6.71074 5.33615L5.94308 4.04747ZM3.10643 12.851C2.91437 11.5163 2.7799 10.5745 2.75432 9.82469C2.72936 9.09337 2.81229 8.61505 3.01166 8.19917L1.65907 7.55072C1.31798 8.26219 1.22554 9.0068 1.25519 9.87584C1.28421 10.7264 1.43433 11.7624 1.62172 13.0647L3.10643 12.851ZM15.0001 17.2498H9.0001V18.7498H15.0001V17.2498Z" fill="#4C4C4C"/>
</svg>
